<svg width="29" height="29" viewBox="0 0 29 29" fill="none" xmlns="http://www.w3.org/2000/svg">
<g filter="url(#filter0_d_1_5)">
<circle cx="14.5" cy="10.5" r="10.5" fill="white"/>
</g>
<g filter="url(#filter1_d_1_5)">
<path d="M12.896 15.12C12.28 15.12 11.708 15.012 11.18 14.796C10.652 14.58 10.192 14.28 9.8 13.896C9.416 13.504 9.116 13.044 8.9 12.516C8.684 11.988 8.576 11.416 8.576 10.8C8.576 10.184 8.684 9.612 8.9 9.084C9.116 8.556 9.416 8.1 9.8 7.716C10.192 7.324 10.652 7.02 11.18 6.804C11.708 6.588 12.28 6.48 12.896 6.48C13.32 6.48 13.728 6.532 14.12 6.636C14.52 6.732 14.876 6.88 15.188 7.08C15.244 7.12 15.284 7.168 15.308 7.224C15.34 7.272 15.356 7.324 15.356 7.38C15.356 7.492 15.32 7.584 15.248 7.656C15.176 7.72 15.1 7.752 15.02 7.752C14.98 7.752 14.94 7.748 14.9 7.74C14.868 7.724 14.836 7.708 14.804 7.692C14.532 7.54 14.236 7.42 13.916 7.332C13.596 7.244 13.256 7.2 12.896 7.2C12.208 7.2 11.596 7.356 11.06 7.668C10.524 7.98 10.104 8.408 9.8 8.952C9.496 9.496 9.344 10.112 9.344 10.8C9.344 11.488 9.496 12.104 9.8 12.648C10.104 13.192 10.524 13.62 11.06 13.932C11.596 14.244 12.208 14.4 12.896 14.4C13.256 14.4 13.616 14.348 13.976 14.244C14.344 14.14 14.66 14 14.924 13.824L14.864 14.076V11.316L15.044 11.484H12.968C12.864 11.484 12.776 11.448 12.704 11.376C12.632 11.304 12.596 11.22 12.596 11.124C12.596 11.012 12.632 10.924 12.704 10.86C12.776 10.796 12.864 10.764 12.968 10.764H15.26C15.364 10.764 15.448 10.8 15.512 10.872C15.584 10.936 15.62 11.02 15.62 11.124V14.016C15.62 14.08 15.604 14.14 15.572 14.196C15.54 14.252 15.496 14.3 15.44 14.34C15.088 14.58 14.692 14.772 14.252 14.916C13.82 15.052 13.368 15.12 12.896 15.12Z" fill="black"/>
<path d="M17.9972 15.0682C17.7869 15.0682 17.6065 14.9929 17.456 14.8423C17.3054 14.6918 17.2301 14.5114 17.2301 14.3011C17.2301 14.0909 17.3054 13.9105 17.456 13.7599C17.6065 13.6094 17.7869 13.5341 17.9972 13.5341C18.2074 13.5341 18.3878 13.6094 18.5384 13.7599C18.6889 13.9105 18.7642 14.0909 18.7642 14.3011C18.7642 14.4403 18.7287 14.5682 18.6577 14.6847C18.5895 14.8011 18.4972 14.8949 18.3807 14.9659C18.267 15.0341 18.1392 15.0682 17.9972 15.0682Z" fill="#40AA0B"/>
</g>
<defs>
<filter id="filter0_d_1_5" x="0" y="0" width="29" height="29" filterUnits="userSpaceOnUse" color-interpolation-filters="sRGB">
<feFlood flood-opacity="0" result="BackgroundImageFix"/>
<feColorMatrix in="SourceAlpha" type="matrix" values="0 0 0 0 0 0 0 0 0 0 0 0 0 0 0 0 0 0 127 0" result="hardAlpha"/>
<feOffset dy="4"/>
<feGaussianBlur stdDeviation="2"/>
<feComposite in2="hardAlpha" operator="out"/>
<feColorMatrix type="matrix" values="0 0 0 0 0 0 0 0 0 0 0 0 0 0 0 0 0 0 0.25 0"/>
<feBlend mode="normal" in2="BackgroundImageFix" result="effect1_dropShadow_1_5"/>
<feBlend mode="normal" in="SourceGraphic" in2="effect1_dropShadow_1_5" result="shape"/>
</filter>
<filter id="filter1_d_1_5" x="4.576" y="6.48" width="18.1882" height="16.64" filterUnits="userSpaceOnUse" color-interpolation-filters="sRGB">
<feFlood flood-opacity="0" result="BackgroundImageFix"/>
<feColorMatrix in="SourceAlpha" type="matrix" values="0 0 0 0 0 0 0 0 0 0 0 0 0 0 0 0 0 0 127 0" result="hardAlpha"/>
<feOffset dy="4"/>
<feGaussianBlur stdDeviation="2"/>
<feComposite in2="hardAlpha" operator="out"/>
<feColorMatrix type="matrix" values="0 0 0 0 0 0 0 0 0 0 0 0 0 0 0 0 0 0 0.25 0"/>
<feBlend mode="normal" in2="BackgroundImageFix" result="effect1_dropShadow_1_5"/>
<feBlend mode="normal" in="SourceGraphic" in2="effect1_dropShadow_1_5" result="shape"/>
</filter>
</defs>
</svg>
